<svg width="477" height="151" fill="none" xmlns="http://www.w3.org/2000/svg"><path d="M257.172 39.245L251 15.262 298.561 0H308v129h-26.14V31.614l-24.688 7.631z" fill="#49B959"/><path fill-rule="evenodd" clip-rule="evenodd" d="M456.909 87.914c-9.263 24.313-32.793 41.586-60.358 41.586-35.66 0-64.568-28.908-64.568-64.568S360.891.365 396.551.365c27.565 0 51.095 17.273 60.358 41.586h-29.713c-6.988-9.304-18.114-15.321-30.645-15.321-21.154 0-38.303 17.148-38.303 38.302s17.149 38.303 38.303 38.303c12.531 0 23.657-6.018 30.645-15.32h29.713z" fill="#49B959"/><path d="M406 78.48c.224.043.537.043.941.043 3.404.173 5.509-2.083 6.494-4.6.761-1.692 1.12-4.34 1.299-6.248.089-.955.134-2.083.179-3.385l.134-4.036h9.854V78.48h3.225V57.521h-16.169l-.179 6.682c-.135 3.428-.359 5.685-1.075 7.984-.672 2.257-1.926 3.472-3.852 3.472-.358 0-.627 0-.851-.044v2.864zm40.069.52c3.269 0 5.778-.65 7.569-1.996v-2.777c-2.105 1.302-4.434 1.953-6.942 1.953-5.196 0-8.868-2.908-9.227-7.42h17.782v-.869c0-4.73-2.867-10.891-10.123-10.891-3.225 0-5.867 1.041-7.927 3.168-2.016 2.083-3.046 4.686-3.046 7.854 0 3.21 1.12 5.858 3.404 7.897 2.284 2.04 5.151 3.081 8.51 3.081zm-8.555-12.8c.134-1.737.896-3.212 2.195-4.47 1.343-1.259 3.09-1.91 5.285-1.91 2.284 0 3.986.651 5.106 1.997 1.164 1.301 1.791 2.777 1.881 4.382h-14.467zm31.648 12.28V60.253H477V57.52h-18.901v2.733h7.838V78.48h3.225zM.99 61.03h6.93V79h3.3V61.03h6.96V58H.99v3.03zM32.09 79c2.19 0 3.9-.54 5.16-1.62 1.29-1.08 1.92-2.52 1.92-4.29 0-3.09-1.92-5.13-4.47-5.61 1.59-.6 2.79-2.16 2.79-4.32 0-3.24-2.43-5.16-6.18-5.16h-9.54v21h10.32zm-7.02-9.63h6.42c2.61 0 4.11 1.17 4.11 3.24 0 2.13-1.56 3.36-4.11 3.36h-6.42v-6.6zm0-8.34h5.67c2.19 0 3.48.93 3.48 2.7s-1.29 2.73-3.48 2.73h-5.67v-5.43zm22.622 13.05c-1.41-1.5-2.1-3.36-2.1-5.58s.69-4.08 2.1-5.55c1.41-1.5 3.15-2.25 5.22-2.25s3.81.75 5.22 2.25c1.41 1.47 2.13 3.33 2.13 5.55 0 2.22-.72 4.08-2.13 5.58-1.41 1.47-3.15 2.22-5.22 2.22s-3.81-.75-5.22-2.22zm12.9 2.19c2.04-2.1 3.06-4.68 3.06-7.77s-1.02-5.67-3.06-7.74c-2.04-2.1-4.59-3.15-7.68-3.15s-5.64 1.05-7.68 3.15c-2.01 2.07-3.03 4.65-3.03 7.74s1.02 5.67 3.03 7.77c2.04 2.07 4.59 3.12 7.68 3.12s5.64-1.05 7.68-3.12zM71.418 79v-8.67h5.73c2.19 0 3.9-.57 5.13-1.74 1.26-1.17 1.89-2.67 1.89-4.5 0-1.8-.63-3.27-1.89-4.38-1.23-1.14-2.94-1.71-5.13-1.71h-9.03v21h3.3zm0-17.97h5.46c2.49 0 3.96 1.11 3.96 3.12s-1.47 3.15-3.96 3.15h-5.46v-6.27zM90.8 79l11.61-15.48V79h3.3V58h-2.88L91.28 73.42V58h-3.3v21h2.82zm23.42 0V63.04l5.85 7.92h1.92l5.85-7.92V79h3.3V58h-3.3l-6.75 9.45-6.81-9.45h-3.36v21h3.3zm30.852 4.5V79h15.9v4.5h3.12v-7.53h-3.03V58h-13.89v2.91c0 3.87-.27 6.96-.78 9.21-.51 2.25-1.32 4.2-2.43 5.85h-2.01v7.53h3.12zm2.49-7.53c1.05-1.71 1.77-3.75 2.19-6.12.42-2.37.63-5.31.63-8.82h7.38v14.94h-10.2zm24.816-1.89c-1.41-1.5-2.1-3.36-2.1-5.58s.69-4.08 2.1-5.55c1.41-1.5 3.15-2.25 5.22-2.25s3.81.75 5.22 2.25c1.41 1.47 2.13 3.33 2.13 5.55 0 2.22-.72 4.08-2.13 5.58-1.41 1.47-3.15 2.22-5.22 2.22s-3.81-.75-5.22-2.22zm12.9 2.19c2.04-2.1 3.06-4.68 3.06-7.77s-1.02-5.67-3.06-7.74c-2.04-2.1-4.59-3.15-7.68-3.15s-5.64 1.05-7.68 3.15c-2.01 2.07-3.03 4.65-3.03 7.74s1.02 5.67 3.03 7.77c2.04 2.07 4.59 3.12 7.68 3.12s5.64-1.05 7.68-3.12zM201.685 79c2.4 0 4.29-.63 5.64-1.86 1.38-1.23 2.07-2.88 2.07-4.89s-.69-3.66-2.07-4.89c-1.38-1.26-3.27-1.89-5.64-1.89h-5.58v-4.44h11.52V58h-14.82v21h8.88zm-5.58-10.5h5.28c2.91 0 4.65 1.38 4.65 3.75s-1.68 3.72-4.65 3.72h-5.28V68.5zM216.877 79v-8.67h5.73c2.19 0 3.9-.57 5.13-1.74 1.26-1.17 1.89-2.67 1.89-4.5 0-1.8-.63-3.27-1.89-4.38-1.23-1.14-2.94-1.71-5.13-1.71h-9.03v21h3.3zm0-17.97h5.46c2.49 0 3.96 1.11 3.96 3.12s-1.47 3.15-3.96 3.15h-5.46v-6.27zm21.303 13.05c-1.41-1.5-2.1-3.36-2.1-5.58s.69-4.08 2.1-5.55c1.41-1.5 3.15-2.25 5.22-2.25s3.81.75 5.22 2.25c1.41 1.47 2.13 3.33 2.13 5.55 0 2.22-.72 4.08-2.13 5.58-1.41 1.47-3.15 2.22-5.22 2.22s-3.81-.75-5.22-2.22zm12.9 2.19c2.04-2.1 3.06-4.68 3.06-7.77s-1.02-5.67-3.06-7.74c-2.04-2.1-4.59-3.15-7.68-3.15s-5.64 1.05-7.68 3.15c-2.01 2.07-3.03 4.65-3.03 7.74s1.02 5.67 3.03 7.77c2.04 2.07 4.59 3.12 7.68 3.12s5.64-1.05 7.68-3.12zM15.81 129v-2.94H5.97l4.53-4.32c1.68-1.59 2.85-2.97 3.54-4.08.69-1.14 1.05-2.43 1.05-3.87 0-1.83-.69-3.33-2.1-4.47-1.38-1.14-3.06-1.71-5.04-1.71-2.4 0-4.47.72-6.21 2.19v3.45c1.83-1.74 3.81-2.61 5.88-2.61 2.49 0 4.17 1.41 4.17 3.54 0 1.02-.3 1.98-.9 2.88-.6.87-1.62 2.01-3.09 3.36l-6.6 6.18v2.4h14.61zm12.094.39c2.67 0 4.83-1.05 6.42-3.15 1.62-2.13 2.43-4.71 2.43-7.74 0-3.03-.81-5.58-2.43-7.71-1.59-2.13-3.75-3.18-6.42-3.18s-4.8 1.05-6.42 3.18c-1.59 2.13-2.4 4.68-2.4 7.71 0 3.03.81 5.61 2.4 7.74 1.62 2.1 3.75 3.15 6.42 3.15zm0-3.09c-1.65 0-2.97-.75-3.99-2.25-1.02-1.53-1.53-3.36-1.53-5.55s.51-4.02 1.53-5.52c1.02-1.53 2.34-2.28 3.99-2.28 1.65 0 3 .75 4.02 2.25 1.02 1.5 1.53 3.36 1.53 5.55s-.51 4.05-1.53 5.55-2.37 2.25-4.02 2.25zm19.202 2.7v-21h-2.88l-4.95 2.79V114l4.59-2.46V129h3.24zm11.455 0v-21h-2.88l-4.95 2.79V114l4.59-2.46V129h3.24zm14.635-6.81v-2.91h-8.85v2.91h8.85zM91.953 129v-2.94h-9.84l4.53-4.32c1.68-1.59 2.85-2.97 3.54-4.08.69-1.14 1.05-2.43 1.05-3.87 0-1.83-.69-3.33-2.1-4.47-1.38-1.14-3.06-1.71-5.04-1.71-2.4 0-4.47.72-6.21 2.19v3.45c1.83-1.74 3.81-2.61 5.88-2.61 2.49 0 4.17 1.41 4.17 3.54 0 1.02-.3 1.98-.9 2.88-.6.87-1.62 2.01-3.09 3.36l-6.6 6.18v2.4h14.61zm12.094.39c2.67 0 4.83-1.05 6.42-3.15 1.62-2.13 2.43-4.71 2.43-7.74 0-3.03-.81-5.58-2.43-7.71-1.59-2.13-3.75-3.18-6.42-3.18s-4.8 1.05-6.42 3.18c-1.59 2.13-2.4 4.68-2.4 7.71 0 3.03.81 5.61 2.4 7.74 1.62 2.1 3.75 3.15 6.42 3.15zm0-3.09c-1.65 0-2.97-.75-3.99-2.25-1.02-1.53-1.53-3.36-1.53-5.55s.51-4.02 1.53-5.52c1.02-1.53 2.34-2.28 3.99-2.28 1.65 0 3 .75 4.02 2.25 1.02 1.5 1.53 3.36 1.53 5.55s-.51 4.05-1.53 5.55-2.37 2.25-4.02 2.25zm26.402 2.7v-2.94h-9.84l4.53-4.32c1.68-1.59 2.85-2.97 3.54-4.08.69-1.14 1.05-2.43 1.05-3.87 0-1.83-.69-3.33-2.1-4.47-1.38-1.14-3.06-1.71-5.04-1.71-2.4 0-4.47.72-6.21 2.19v3.45c1.83-1.74 3.81-2.61 5.88-2.61 2.49 0 4.17 1.41 4.17 3.54 0 1.02-.3 1.98-.9 2.88-.6.87-1.62 2.01-3.09 3.36l-6.6 6.18v2.4h14.61zm10.114 0v-21h-2.88l-4.95 2.79V114l4.59-2.46V129h3.24z" fill="#AADFB1"/></svg>