<svg width="26" height="29" fill="none" xmlns="http://www.w3.org/2000/svg"><path fill-rule="evenodd" clip-rule="evenodd" d="M19.588 13.04a1.41 1.41 0 00-1.988 0l-3.194 3.18V1.4c0-.773-.63-1.4-1.406-1.4-.776 0-1.406.627-1.406 1.4v14.82L8.4 13.04a1.41 1.41 0 00-1.988 0 1.396 1.396 0 000 1.98l5.594 5.57a1.41 1.41 0 001.988 0l5.594-5.57c.55-.548.55-1.434 0-1.98z" fill="#308E3D"/><rect y="29" width="3" height="26" rx="1.5" transform="rotate(-90 0 29)" fill="#308E3D"/><rect y="19" width="3" height="10" rx="1.5" fill="#308E3D"/><rect x="23" y="19" width="3" height="10" rx="1.5" fill="#308E3D"/></svg>