<svg width="74" height="74" fill="none" xmlns="http://www.w3.org/2000/svg"><path d="M34.522.258c-1.575.42-2.702 1.07-3.93 2.313-1.258 1.242-1.894 2.355-2.313 3.989-.52 2.037-.26 4.249.751 6.171.607 1.17 2.37 2.934 3.541 3.541.492.26 1.373.593 1.951.752.579.144 1.027.274.983.289-.043 0-.665.13-1.373.274-4.914 1.012-8.744 4.625-10.06 9.482-.288 1.026-.332 1.618-.39 5.174-.043 2.992-.014 4.133.116 4.451.376.882-.13 4.438 12.863 4.438 12.994 0 12.488-3.556 12.864-4.438.13-.318.159-1.46.115-4.451-.057-3.556-.1-4.148-.39-5.174-1.026-3.802-3.584-6.851-7.14-8.542-1.07-.506-3.035-1.07-3.714-1.07-.752 0-.564-.202.434-.448 1.546-.39 2.673-1.055 3.902-2.298 1.257-1.243 1.893-2.356 2.312-3.989.52-2.038.26-4.25-.751-6.171-.607-1.171-2.37-2.934-3.541-3.541-1.908-.998-4.206-1.272-6.23-.752zm4.51 3.15c1.315.608 2.153 1.446 2.804 2.747.506 1.04.535 1.17.535 2.486 0 1.315-.03 1.445-.535 2.486-.65 1.315-1.489 2.124-2.833 2.76-.882.42-1.099.463-2.342.463-1.242 0-1.46-.043-2.312-.448-1.373-.665-2.211-1.46-2.847-2.775-.52-1.04-.55-1.17-.55-2.472 0-1.257.044-1.474.463-2.356.578-1.228 1.402-2.124 2.486-2.688 1.127-.607 1.763-.751 3.078-.694.882.044 1.33.16 2.053.492zm-.448 16.998c3.064.592 5.709 2.63 7.096 5.463.896 1.835 1.099 2.963 1.099 6.186v2.602s.644 3.237-10.118 3.237c-10.761 0-10.117-3.237-10.117-3.237v-2.588c0-3.266.203-4.393 1.099-6.229.563-1.142.896-1.59 1.922-2.616 1.026-1.026 1.474-1.359 2.616-1.922 2.11-1.04 4.148-1.316 6.403-.896z" fill="#308E3D"/><path d="M4.423 16.91c-.91.231-2.212 1.012-2.848 1.691-.318.347-.795 1.07-1.04 1.605l-.463.968L.03 32.23C0 41.755.014 43.505.217 44.864c.737 5.058 3.613 9.727 7.761 12.66.578.42 2.92 1.691 5.218 2.833l4.148 2.081v4.047c0 2.819.058 4.148.173 4.409.361.794.29.794 8.932.794 8.643 0 8.57 0 8.932-.794.275-.608.246-19.613-.043-20.958-.304-1.46-1.229-3.223-2.255-4.335-1.647-1.764-3.136-2.472-6.027-2.891-2.139-.303-3.859-.81-5.376-1.547-1.113-.549-1.489-.867-3.99-3.324-2.991-2.934-3.757-3.468-5.347-3.67l-.766-.087-.043-6.461-.044-6.46-.534-1.1c-.983-1.965-2.718-3.135-4.857-3.237-.607-.029-1.358.015-1.676.087zm2.948 3.238c.304.188.694.607.882.91l.347.55.043 6.677c.029 4.061-.014 6.692-.101 6.692-.072 0-.463.303-.867.664-.506.449-.91 1.012-1.272 1.764-.52 1.04-.55 1.17-.55 2.486 0 1.315.03 1.445.535 2.471.492.968.91 1.445 4.697 5.218 4.134 4.119 4.177 4.162 4.77 4.162.824 0 1.33-.448 1.445-1.272l.087-.621-4.206-4.22c-4.336-4.365-4.51-4.582-4.51-5.724 0-1.517 1.388-2.905 2.906-2.905 1.084 0 1.445.26 4.177 2.963 1.489 1.474 3.078 2.905 3.584 3.223 1.778 1.142 4.148 1.908 7.545 2.414 2.457.375 3.873 1.257 4.957 3.107.81 1.387.824 1.59.824 11.23v8.86h-12.43v-3.758c0-2.573-.057-3.859-.173-4.12-.13-.288-1.156-.866-4.87-2.745-3.368-1.706-5.074-2.645-5.955-3.31-2.949-2.226-4.842-5.087-5.883-8.889l-.376-1.387L2.92 33.43c-.03-7.79 0-11.346.115-11.75.188-.709 1.099-1.662 1.763-1.865.766-.231 1.952-.087 2.573.333zM68.9 16.91c.911.231 2.212 1.012 2.848 1.691.318.347.795 1.07 1.04 1.605l.463.968.043 11.056c.03 9.525.015 11.274-.188 12.633-.737 5.058-3.613 9.727-7.761 12.66-.578.42-2.92 1.691-5.218 2.833l-4.148 2.081v4.047c0 2.819-.057 4.148-.173 4.409-.361.794-.29.794-8.932.794-8.643 0-8.57 0-8.932-.794-.275-.608-.246-19.613.043-20.958.304-1.46 1.229-3.223 2.255-4.335 1.648-1.764 3.136-2.472 6.027-2.891 2.139-.303 3.859-.81 5.376-1.547 1.113-.549 1.49-.867 3.99-3.324 2.991-2.934 3.757-3.468 5.347-3.67l.766-.087.043-6.461.044-6.46.535-1.1c.982-1.965 2.717-3.135 4.856-3.237.607-.029 1.358.015 1.676.087zm-2.948 3.238c-.303.188-.694.607-.882.91l-.346.55-.044 6.677c-.029 4.061.015 6.692.101 6.692.073 0 .463.303.867.664.506.449.911 1.012 1.272 1.764.52 1.04.55 1.17.55 2.486 0 1.315-.03 1.445-.535 2.471-.492.968-.91 1.445-4.698 5.218-4.133 4.119-4.176 4.162-4.769 4.162-.824 0-1.33-.448-1.445-1.272l-.087-.621 4.206-4.22c4.336-4.365 4.51-4.582 4.51-5.724 0-1.517-1.388-2.905-2.906-2.905-1.084 0-1.445.26-4.177 2.963-1.489 1.474-3.078 2.905-3.584 3.223-1.778 1.142-4.148 1.908-7.545 2.414-2.457.375-3.873 1.257-4.957 3.107-.81 1.387-.824 1.59-.824 11.23v8.86h12.43v-3.758c0-2.573.058-3.859.173-4.12.13-.288 1.156-.866 4.87-2.745 3.368-1.706 5.074-2.645 5.956-3.31 2.948-2.226 4.841-5.087 5.882-8.889l.376-1.387.058-11.158c.029-7.79 0-11.346-.116-11.75-.188-.709-1.099-1.662-1.763-1.865-.766-.231-1.952-.087-2.573.333z" fill="#308E3D"/></svg>