<svg width="80" height="74" fill="none" xmlns="http://www.w3.org/2000/svg"><path d="M58.2 1.04c-.08.03-.49.249-.9.487-2.16 1.22-4.37 1.678-6.94 1.43-1.52-.15-1.86-.07-2.21.526-.19.307-.2.546-.2 7.663 0 7.873.01 7.992.52 9.63.68 2.134 1.96 3.822 3.85 5.073.88.586 2.63 1.44 4.62 2.273 1.56.646 1.6.655 2.05.546.59-.139 2.89-1.092 4.06-1.668 3.71-1.816 5.72-4.536 6.14-8.289.07-.586.11-3.623.11-7.862 0-7.386.01-7.297-.5-7.744-.18-.159-.35-.198-.89-.178-3.39.08-3.67.08-4.49-.1a11.655 11.655 0 01-3.38-1.28c-.86-.487-1.47-.655-1.84-.507zm-1 13.879c0 8.16-.03 10.275-.12 10.275-.29-.01-1.91-.685-2.57-1.082-1.39-.814-2.59-2.184-3.19-3.614-.61-1.44-.62-1.628-.62-8.488V5.766l1.43-.06c1.58-.07 2.8-.288 4.07-.744.47-.16.88-.298.93-.308.04-.01.07 4.616.07 10.265zm3.77-9.977c1.25.447 2.61.695 4.21.764l1.43.06-.04 6.463c-.03 6.214-.04 6.492-.24 7.187-.63 2.154-1.92 3.782-3.83 4.815-.68.367-2.25 1.062-2.41 1.062-.05 0-.09-4.18-.09-10.324 0-5.679.04-10.325.08-10.325.05 0 .45.13.89.298zm-23.27 1.4c-7.46.526-13.86 3.047-19.72 7.743-1.49 1.201-4.27 3.98-4.52 4.527-.33.735.04 1.568.79 1.817.68.228.87.099 2.9-1.877 2.77-2.7 4.8-4.249 7.6-5.758 4.07-2.203 8.31-3.385 13.4-3.722 2.19-.15 2.5-.219 2.89-.646.24-.258.32-1.012.16-1.4-.29-.694-1.1-.863-3.5-.684z" fill="#308E3D"/><path d="M37.1 20.975c-3.17.625-5.73 3.146-6.3 6.214-.19 1.013-.15 2.69.1 3.614.39 1.509 1.2 2.869 2.27 3.812l.57.506-.2.218c-.11.13-.83.944-1.6 1.817-.76.874-2.36 2.571-3.55 3.763l-2.16 2.174-3.52-2.512-3.51-2.521.42-.427c.24-.239.65-.546.92-.675.47-.229.6-.249 2.05-.249 1.72 0 2.23-.129 2.56-.635.36-.536.2-1.012-1.47-4.408-.86-1.727-1.7-3.454-1.88-3.822-1.23-2.59-4.11-4.338-7.18-4.338-1.35 0-2.24.209-3.51.814-.9.427-1.16.616-1.91 1.35-.54.536-1.02 1.132-1.27 1.559C7.1 28.679 4 35.08 4 35.349c0 .537.26.953.72 1.162.37.169.66.198 2 .198.86 0 1.69.05 1.85.11.39.139 1.33.863 1.33 1.012 0 .07-1.97 2.105-4.38 4.537S1 47.004.82 47.262c-.65.933-.82 1.42-.82 2.422 0 .785.04.983.29 1.54.16.337.43.803.6 1.022 1.21 1.489 3.35 1.965 5.1 1.122.6-.288.71-.318.71-.17 0 .09-.61 2.602-1.36 5.57-1.41 5.609-1.45 5.847-1.09 6.393.29.437.7.536 2.29.536h1.44l.04 2.512.03 2.512.32.645c.4.794 1.21 1.588 2 1.946 1.09.496 2.3.407 3.67-.278l.59-.298.81.407c1.46.734 2.87.655 4.17-.228.73-.497 1.31-1.271 1.53-2.055.11-.378.18-1.261.22-2.86l.07-2.303h1.39c1.53 0 1.9-.089 2.26-.546.15-.188.22-.417.22-.695 0-.228-.72-3.315-1.6-6.85-.88-3.544-1.58-6.452-1.56-6.472.02-.02.48.179 1.02.447 1.4.694 2.21.933 3.24.933 1.62.01 2.68-.536 4.45-2.303l1.1-1.092L32 59.86l.05 10.751.24.576c.57 1.42 1.86 2.343 3.4 2.432.93.05 1.91-.198 2.55-.655l.39-.288.56.338c.83.496 1.5.665 2.42.595 1.72-.109 2.98-1.111 3.5-2.76.18-.575.19-1.072.19-11.058 0-6.294.04-10.484.09-10.523.05-.03 1.17 1.012 2.48 2.313 1.37 1.37 2.63 2.531 2.97 2.75 1.81 1.161 3.97 1.39 6.29.684.16-.05.17.358.17 7.585s.01 7.684.19 8.25c.37 1.19 1.03 1.936 2.18 2.472.51.228.7.268 1.53.258.86 0 1.04-.04 1.89-.368l.95-.377.75.377c.74.368.79.378 1.82.378 1.01 0 1.08-.01 1.81-.368.89-.447 1.38-.933 1.82-1.856l.31-.655.05-7.535.05-7.525 1.33 1.201c.74.655 1.52 1.31 1.75 1.44 1.31.754 2.92.724 4.24-.06.74-.437 1.18-.953 1.64-1.926.36-.744.39-.883.39-1.658 0-.764-.03-.903-.36-1.568-.35-.685-.7-1.063-5.75-6.096l-5.39-5.37.51-.586c.58-.685 1.32-2.134 1.48-2.909.16-.754.13-2.243-.04-2.998-.38-1.588-1.62-3.306-2.96-4.1-1.85-1.082-4.36-1.25-6.26-.417-1.87.824-3.34 2.63-3.79 4.656-.25 1.152-.16 2.532.24 3.594.35.953.79 1.668 1.53 2.462l.53.585-.55.507c-3.19 2.948-3.4 3.127-3.89 3.286-.63.208-1.14.129-1.72-.248-.24-.16-2.65-2.502-5.37-5.202l-4.94-4.904.39-.328c1.28-1.092 2.15-2.383 2.64-3.912.34-1.062.4-3.097.11-4.219-.26-1.062-.95-2.462-1.58-3.206-1.85-2.194-4.9-3.266-7.73-2.7zm3.3 2.869c1.25.426 2.39 1.42 2.99 2.61.54 1.063.67 2.67.31 3.822-.66 2.115-2.86 3.753-5.05 3.753-1.73 0-3.69-1.142-4.58-2.65-.84-1.45-.92-3.376-.19-4.845.55-1.122 1.34-1.906 2.5-2.482 1.18-.586 2.7-.665 4.02-.208zm-24.39 2.501c.94.278 1.71.735 2.35 1.38.55.566.74.874 1.79 2.998.65 1.3 1.27 2.591 1.4 2.86l.23.496-.79-.04c-.99-.04-1.47.169-2.92 1.26-1.49 1.133-2.69 1.52-4.03 1.311-1.26-.198-1.97-.556-2.99-1.499-1.02-.933-1.36-1.082-2.52-1.082-.51 0-.93-.02-.93-.05 0-.03.65-1.34 1.45-2.918 1.38-2.74 1.47-2.88 2.09-3.465.66-.605 1.59-1.132 2.32-1.3.65-.15 1.96-.12 2.55.05zm49.36 6.701c1.6.596 2.62 2.194 2.51 3.922-.09 1.42-.94 2.64-2.27 3.285-.5.249-.67.279-1.61.279-.94 0-1.11-.03-1.63-.269-1.1-.516-1.84-1.35-2.18-2.481-.79-2.572 1.36-5.212 4.05-4.984.32.03.83.139 1.13.248zm-25.69 3.812c.77.179 1.61.596 2.33 1.152.29.228 2.63 2.482 5.19 5.003 5.01 4.924 5.12 5.014 6.51 5.371 1.17.298 2.44.04 3.65-.745.33-.198 1.2-.943 1.94-1.638.74-.704 1.54-1.41 1.78-1.568 1.78-1.221 3.69-1.37 5.56-.447.78.387.97.556 5.63 5.172 5.23 5.182 5.15 5.093 4.93 5.927-.13.447-.67.953-1.14 1.032-.61.12-1.11-.208-2.91-1.896-3.48-3.276-3.53-3.315-4.38-2.938-.88.387-.81-.348-.87 9.868-.05 8.964-.05 9.004-.26 9.282-.44.585-1.37.665-1.87.178-.44-.446-.47-.814-.47-6.125 0-4.656-.01-5.023-.18-5.34-.37-.706-1.42-.904-1.99-.388-.53.487-.53.477-.53 5.976 0 5.083 0 5.093-.22 5.53-.18.357-.31.476-.65.586-.56.198-1.13.03-1.45-.417l-.23-.318-.05-9.034c-.06-10.215.01-9.411-.86-9.788-.57-.248-.9-.169-1.76.447-1.61 1.131-3.06 1.29-4.67.496-.7-.348-1.03-.636-4.36-3.911-1.98-1.956-3.7-3.594-3.82-3.664-.12-.06-.4-.109-.62-.109-.51 0-1.06.447-1.21.973-.06.238-.1 4.527-.1 12.36 0 12.975.02 12.458-.53 12.826-.68.436-1.56.218-1.88-.487-.18-.387-.19-.844-.19-8.527 0-9.005.03-8.607-.64-9.014-.6-.368-1.55-.15-1.88.426-.1.18-.14 1.936-.18 8.568-.06 9.312-.01 8.776-.76 9.133a1.37 1.37 0 01-1.31-.1c-.55-.367-.53.16-.53-12.925 0-11.962 0-12.081-.2-12.498a1.323 1.323 0 00-1.88-.536c-.18.109-1.34 1.21-2.58 2.432-1.23 1.23-2.38 2.303-2.55 2.382-.49.259-1.19.288-1.85.1-.32-.09-1.63-.695-2.9-1.35-1.88-.963-2.39-1.182-2.74-1.182-.78 0-1.3.516-1.3 1.28 0 .23.79 3.565 1.75 7.427.96 3.861 1.75 7.058 1.75 7.097 0 .04-.53.08-1.17.08-.94 0-1.26.04-1.6.189-.76.347-.77.426-.83 3.901-.05 2.889-.06 3.058-.26 3.326-.11.149-.4.347-.62.427-.58.198-1.17 0-1.47-.497-.19-.327-.2-.556-.25-3.395-.05-2.879-.06-3.058-.26-3.326-.47-.635-1.3-.774-1.89-.307-.52.397-.55.625-.55 3.683 0 2.71-.01 2.819-.22 3.246-.19.357-.31.476-.65.596-.38.129-.48.129-.85 0-.22-.08-.51-.278-.62-.427-.2-.268-.21-.437-.26-3.326-.04-1.896-.1-3.137-.17-3.296-.27-.605-.82-.794-2.36-.794-1.06 0-1.07 0-1.02-.228.03-.12.84-3.366 1.81-7.218 1.22-4.874 1.74-7.098 1.7-7.336-.08-.486-.32-.804-.82-1.022-.77-.338-.87-.268-3.04 1.856-1.66 1.638-2.01 1.926-2.33 1.985-1.16.219-2.05-.804-1.63-1.866.23-.576 8.02-8.408 8.94-8.994 1.72-1.082 3.76-1.132 5.52-.139.25.149 1.22.824 2.15 1.519 2.61 1.936 6.08 4.348 6.5 4.517.71.298.75.268 5.1-4.01 2.2-2.175 4.18-4.081 4.4-4.25 1.29-.973 2.77-1.31 4.23-.973zm34.26-10.672c-.11.04-.33.219-.47.398-.39.456-.36.963.12 2.154 1.35 3.395 1.98 6.214 2.26 10.185.1 1.48.2 2.254.3 2.452.2.388.63.596 1.2.596.38 0 .52-.06.82-.338l.38-.337.05-1.082c.08-1.599-.2-4.24-.7-6.681-.59-2.87-1.84-6.404-2.51-7.079-.32-.317-.43-.367-.8-.357-.24 0-.53.04-.65.09z" fill="#308E3D"/></svg>