<svg width="94" height="62" fill="none" xmlns="http://www.w3.org/2000/svg"><path d="M38.461 54.021c7.675 0 13.92-6.245 13.92-13.92s-6.245-13.92-13.92-13.92-13.92 6.245-13.92 13.92 6.245 13.92 13.92 13.92zm0-24.84c6.021 0 10.92 4.898 10.92 10.92s-4.898 10.92-10.92 10.92-10.92-4.898-10.92-10.92 4.898-10.92 10.92-10.92zm-27.794 21.84v-21.84a1.5 1.5 0 00-3 0v21.84a1.5 1.5 0 003 0zm58.117 0v-21.84a1.5 1.5 0 00-3 0v21.84a1.5 1.5 0 003 0z" fill="#308E3D"/><path d="M93.365 0H17.116v8.898H8.915v9.726H0v42.954h76.249v-9.726h8.915v-8.898h8.2V0h.001zM73.249 58.578H3V21.624h70.249v36.954zm8.915-9.725h-5.915V18.624H11.915v-6.726h70.25l-.001 36.955zm8.201-8.899h-5.2V8.898H20.116V3h70.249v36.954z" fill="#308E3D"/></svg>