<svg width="19" height="15" fill="none" xmlns="http://www.w3.org/2000/svg"><path d="M16.625 0H2.375C1.745 0 1.142.252.696.7A2.395 2.395 0 000 2.386v10.228c0 .632.251 1.239.696 1.686a2.372 2.372 0 001.679.7h14.25c.63 0 1.233-.252 1.679-.7A2.395 2.395 0 0019 12.614V2.386c0-.632-.251-1.239-.696-1.686a2.372 2.372 0 00-1.679-.7zm-.601 3.947L9.916 8.72a.677.677 0 01-.832 0L2.976 3.947a.68.68 0 01-.126-.962.68.68 0 01.96-.114L9.5 7.318l5.69-4.447a.676.676 0 01.945.125.684.684 0 01-.111.951z" fill="#308E3D"/></svg>