<svg width="17" height="17" fill="none" xmlns="http://www.w3.org/2000/svg"><path d="M13.622 17c-.741 0-1.782-.268-3.34-1.139-1.895-1.062-3.361-2.043-5.246-3.923-1.817-1.815-2.701-2.99-3.94-5.243C-.3 4.153-.062 2.82.205 2.251.52 1.57.989 1.163 1.594.759A6.692 6.692 0 012.683.182l.104-.046C2.974.05 3.26-.077 3.62.06c.241.09.456.275.792.607.69.68 1.632 2.195 1.98 2.938.233.502.388.833.388 1.204 0 .434-.219.77-.484 1.13-.05.069-.099.134-.147.197-.289.38-.352.489-.31.685.084.393.716 1.565 1.753 2.6 1.037 1.034 2.175 1.625 2.57 1.71.204.043.316-.023.708-.322l.174-.131c.405-.301.724-.514 1.149-.514h.002c.37 0 .685.16 1.21.424.682.345 2.243 1.275 2.927 1.965.333.335.518.55.61.79.136.361.007.645-.077.834l-.046.105c-.16.378-.354.741-.58 1.084-.403.604-.812 1.07-1.495 1.388a2.56 2.56 0 01-1.121.246z" fill="#308E3D"/></svg>